<svg width="3668" height="808" xmlns="http://www.w3.org/2000/svg" xmlns:xlink="http://www.w3.org/1999/xlink" overflow="hidden"><defs><filter id="fx0" x="-10%" y="-10%" width="120%" height="120%" filterUnits="userSpaceOnUse" primitiveUnits="userSpaceOnUse"><feComponentTransfer color-interpolation-filters="sRGB"><feFuncR type="discrete" tableValues="0 0"/><feFuncG type="discrete" tableValues="0 0"/><feFuncB type="discrete" tableValues="0 0"/><feFuncA type="linear" slope="0.4" intercept="0"/></feComponentTransfer><feGaussianBlur stdDeviation="6.11111 6.11111"/></filter><clipPath id="clip1"><rect x="388" y="667" width="3668" height="808"/></clipPath><clipPath id="clip2"><rect x="231" y="194" width="3021" height="320"/></clipPath><clipPath id="clip3"><rect x="0" y="0" width="3476" height="810"/></clipPath></defs><g clip-path="url(#clip1)" transform="translate(-388 -667)"><g clip-path="url(#clip2)" filter="url(#fx0)" transform="translate(484 666)"><g clip-path="url(#clip3)"><path d="M144.965-256.533C170.166-256.533 189.984-251.028 204.419-240.018 218.854-229.008 226.072-212.86 226.072-191.574 226.072-179.585 223.319-168.82 217.814-159.278 212.309-149.736 203.685-142.029 191.941-136.157 224.482-126.86 240.752-106.185 240.752-74.134 240.752-60.922 238.061-48.6887 232.678-37.434 227.295-26.1793 218.732-17.1267 206.988-10.276 195.244-3.42533 180.319 0 162.214 0L14.68 0 14.68-41.471 19.451-41.471C25.5677-41.471 29.9105-41.7768 32.4795-42.3885 35.0485-43.0002 36.8223-44.2847 37.801-46.242 38.7797-48.1993 39.269-51.5023 39.269-56.151L39.269-201.483C39.269-207.11 37.9845-210.78 35.4155-212.493 32.8465-214.206 27.7697-215.062 20.185-215.062L14.68-215.062 14.68-256.533ZM128.45-155.975C138.481-155.975 145.699-158.116 150.103-162.397 154.507-166.679 156.709-173.346 156.709-182.399 156.709-190.962 154.385-197.324 149.736-201.483 145.087-205.642 137.87-207.722 128.083-207.722L108.632-207.722 108.632-155.975ZM133.955-49.178C145.454-49.178 153.773-51.5635 158.911-56.3345 164.049-61.1055 166.618-68.3843 166.618-78.171 166.618-89.4257 163.376-97.1938 156.892-101.475 150.409-105.757 141.295-107.898 129.551-107.898L108.632-107.898 108.632-49.178ZM401.793-186.436C405.952-186.436 409.744-186.008 413.17-185.151 416.595-184.295 420.632-183.011 425.281-181.298L425.281-113.77 384.177-113.77C384.177-117.929 383.626-120.926 382.525-122.761 381.424-124.596 379.406-125.514 376.47-125.514 368.64-125.514 362.768-120.988 358.854-111.935 354.939-102.882 352.982-90.0373 352.982-73.4L352.982-53.215C352.982-46.8537 354.144-42.7555 356.468-40.9205 358.793-39.0855 363.992-38.168 372.066-38.168L378.305-38.168 378.305 0 264.902 0 264.902-38.168 268.205-38.168C275.789-38.168 280.744-39.0243 283.068-40.737 285.393-42.4497 286.555-46.4867 286.555-52.848L286.555-127.716C286.555-132.12 285.943-135.484 284.72-137.808 283.496-140.133 280.683-141.295 276.279-141.295L264.902-141.295 264.902-179.096 349.312-184.601C350.535-179.952 351.391-175.732 351.881-171.939 352.37-168.147 352.615-162.214 352.615-154.14L353.349-154.14C365.337-175.671 381.485-186.436 401.793-186.436ZM536.26-190.106C566.354-190.106 589.842-181.971 606.724-165.7 623.606-149.43 632.047-126.982 632.047-98.356 632.047-71.198 624.768-46.9148 610.211-25.5065 595.653-4.09817 569.29 6.606 531.122 6.606 507.634 6.606 488.917 1.71267 474.971-8.074 461.025-17.8607 451.3-29.9105 445.795-44.2235 440.29-58.5365 437.537-73.1553 437.537-88.08 437.537-104.962 440.779-121.171 447.263-136.707 453.746-152.244 464.389-165.028 479.192-175.059 493.994-185.09 513.017-190.106 536.26-190.106ZM506.166-89.915C506.166-73.2777 508.674-60.7997 513.69-52.481 518.705-44.1623 526.107-40.003 535.893-40.003 546.659-40.003 553.815-45.0187 557.363-55.05 560.91-65.0813 562.684-79.1497 562.684-97.255 562.684-128.572 553.509-144.231 535.159-144.231 515.831-144.231 506.166-126.126 506.166-89.915ZM743.299-183.867 785.137-183.867 785.137-135.423 743.299-135.423 743.299-75.602C743.299-67.2833 744.584-61.1667 747.153-57.252 749.722-53.3373 754.309-51.38 760.915-51.38 768.255-51.38 776.329-52.848 785.137-55.784L785.137-8.441C766.053-0.122334 746.969 4.037 727.885 4.037 707.088 4.037 692.653-1.101 684.579-11.377 676.505-21.653 672.468-35.3543 672.468-52.481L672.468-135.423 650.448-135.423 650.448-176.527C664.639-180.197 676.199-187.843 685.13-199.464 694.06-211.086 699.381-226.194 701.094-244.789L743.299-244.789ZM896.635-159.645C900.06-167.964 906.605-174.937 916.269-180.564 925.934-186.191 937.249-189.005 950.217-189.005 969.301-189.005 983.92-183.561 994.073-172.673 1004.23-161.786 1009.3-145.944 1009.3-125.147L1009.3-67.895C1009.3-57.8637 1009.61-50.9518 1010.22-47.1595 1010.83-43.3672 1012.12-40.9205 1014.07-39.8195 1016.03-38.7185 1019.82-38.168 1025.45-38.168L1029.86-38.168 1029.86 0 937.005 0 937.005-100.925C937.005-113.403 935.904-122.456 933.702-128.083 931.5-133.71 926.606-136.524 919.022-136.524 910.458-136.524 904.464-133.099 901.039-126.248 897.613-119.397 895.901-109.855 895.901-97.622L895.901-57.619C895.901-51.013 896.329-46.4867 897.185-44.04 898.042-41.5933 899.877-40.003 902.69-39.269 905.504-38.535 910.581-38.168 917.921-38.168L917.921 0 803.784 0 803.784-38.168C811.613-38.4127 816.935-38.902 819.748-39.636 822.562-40.37 824.458-42.205 825.437-45.141 826.415-48.077 826.905-53.4597 826.905-61.289L826.905-198.914C826.905-206.009 826.721-210.841 826.354-213.41 825.987-215.979 824.947-217.753 823.235-218.732 821.522-219.711 818.586-220.2 814.427-220.2L803.784-220.2 803.784-258.001 895.901-264.974 895.901-159.645ZM1142.42-190.106C1199.19-190.106 1227.57-156.709 1227.57-89.915L1227.57-81.107 1119.3-81.107C1120.77-70.3417 1125.54-61.7783 1133.62-55.417 1141.69-49.0557 1151.48-45.875 1162.98-45.875 1173.25-45.875 1182.61-47.2207 1191.05-49.912 1199.49-52.6033 1210.07-56.7627 1222.8-62.39L1222.8-12.111C1210.07-6.239 1197.54-1.6515 1185.18 1.6515 1172.82 4.9545 1159.18 6.606 1144.26 6.606 1110.98 6.606 1086.76-2.69133 1071.59-21.286 1056.67-39.1467 1049.21-61.5337 1049.21-88.447 1049.21-106.552 1052.69-123.312 1059.67-138.726 1066.64-154.14 1077.16-166.557 1091.23-175.976 1105.3-185.396 1122.36-190.106 1142.42-190.106ZM1165.55-115.605C1165.55-126.126 1163.65-134.444 1159.86-140.561 1156.06-146.678 1150.5-149.736 1143.16-149.736 1136.31-149.736 1130.56-146.739 1125.91-140.744 1121.26-134.75 1118.81-126.37 1118.57-115.605ZM1387.21-186.436C1391.37-186.436 1395.16-186.008 1398.59-185.151 1402.01-184.295 1406.05-183.011 1410.7-181.298L1410.7-113.77 1369.59-113.77C1369.59-117.929 1369.04-120.926 1367.94-122.761 1366.84-124.596 1364.82-125.514 1361.89-125.514 1354.06-125.514 1348.19-120.988 1344.27-111.935 1340.36-102.882 1338.4-90.0373 1338.4-73.4L1338.4-53.215C1338.4-46.8537 1339.56-42.7555 1341.88-40.9205 1344.21-39.0855 1349.41-38.168 1357.48-38.168L1363.72-38.168 1363.72 0 1250.32 0 1250.32-38.168 1253.62-38.168C1261.21-38.168 1266.16-39.0243 1268.48-40.737 1270.81-42.4497 1271.97-46.4867 1271.97-52.848L1271.97-127.716C1271.97-132.12 1271.36-135.484 1270.14-137.808 1268.91-140.133 1266.1-141.295 1261.7-141.295L1250.32-141.295 1250.32-179.096 1334.73-184.601C1335.95-179.952 1336.81-175.732 1337.3-171.939 1337.79-168.147 1338.03-162.214 1338.03-154.14L1338.77-154.14C1350.75-175.671 1366.9-186.436 1387.21-186.436Z" fill="#FFFFFF" transform="matrix(1 0 0 1 239.809 482)"/><path d="M113.77-264.974C143.619-264.974 171.022-259.836 195.978-249.56L195.978-179.096 141.295-179.096 141.295-195.978C141.295-206.009 139.093-213.227 134.689-217.631 130.285-222.035 123.679-224.237 114.871-224.237 105.329-224.237 98.6007-221.607 94.686-216.346 90.7713-211.086 88.814-205.642 88.814-200.015 88.814-194.632 90.4655-189.861 93.7685-185.702 97.0715-181.543 101.537-177.689 107.164-174.141 112.791-170.594 121.599-165.639 133.588-159.278 138.237-157.076 142.518-154.874 146.433-152.672 160.134-145.332 171.205-138.481 179.646-132.12 188.087-125.759 194.938-117.746 200.198-108.081 205.459-98.4172 208.089-86.4897 208.089-72.299 208.089-50.0343 200.627-31.4397 185.702-16.515 177.628-8.441 167.658-2.32433 155.791 1.835 143.925 5.99433 128.45 8.074 109.366 8.074 77.07 8.074 47.5877 3.05833 20.919-6.973L20.919-85.511 77.804-85.511 77.804-70.464C77.804-47.4653 87.8353-35.966 107.898-35.966 117.685-35.966 124.902-38.535 129.551-43.673 134.2-48.811 136.524-55.05 136.524-62.39 136.524-71.4427 133.771-78.538 128.266-83.676 122.761-88.814 113.892-94.686 101.659-101.292L86.979-109.366C73.5223-117.195 62.5123-124.352 53.949-130.835 45.3857-137.319 37.7398-145.699 31.0115-155.975 24.2832-166.251 20.919-178.24 20.919-191.941 20.919-202.217 22.9375-211.881 26.9745-220.934 31.0115-229.987 36.4553-237.571 43.306-243.688 51.6247-251.273 61.4725-256.716 72.8495-260.02 84.2265-263.323 97.8667-264.974 113.77-264.974ZM319.708-159.645C323.133-167.964 329.678-174.937 339.342-180.564 349.007-186.191 360.322-189.005 373.29-189.005 392.374-189.005 406.993-183.561 417.146-172.673 427.3-161.786 432.377-145.944 432.377-125.147L432.377-67.895C432.377-57.8637 432.683-50.9518 433.294-47.1595 433.906-43.3672 435.19-40.9205 437.148-39.8195 439.105-38.7185 442.897-38.168 448.525-38.168L452.929-38.168 452.929 0 360.078 0 360.078-100.925C360.078-113.403 358.977-122.456 356.775-128.083 354.573-133.71 349.679-136.524 342.095-136.524 333.531-136.524 327.537-133.099 324.112-126.248 320.686-119.397 318.974-109.855 318.974-97.622L318.974-57.619C318.974-51.013 319.402-46.4867 320.258-44.04 321.115-41.5933 322.95-40.003 325.763-39.269 328.577-38.535 333.654-38.168 340.994-38.168L340.994 0 226.857 0 226.857-38.168C234.686-38.4127 240.008-38.902 242.821-39.636 245.635-40.37 247.531-42.205 248.51-45.141 249.488-48.077 249.978-53.4597 249.978-61.289L249.978-198.914C249.978-206.009 249.794-210.841 249.427-213.41 249.06-215.979 248.02-217.753 246.308-218.732 244.595-219.711 241.659-220.2 237.5-220.2L226.857-220.2 226.857-258.001 318.974-264.974 318.974-159.645ZM518.521-264.974C547.147-264.974 561.46-255.31 561.46-235.981 561.46-226.684 557.607-219.466 549.9-214.328 542.193-209.19 531.122-206.621 516.686-206.621 488.06-206.621 473.747-216.408 473.747-235.981 473.747-245.523 477.54-252.741 485.124-257.634 492.709-262.527 503.841-264.974 518.521-264.974ZM557.79-54.316C557.79-49.4227 558.157-45.9362 558.891-43.8565 559.625-41.7768 561.277-40.3088 563.846-39.4525 566.415-38.5962 570.513-38.168 576.14-38.168L578.709-38.168 578.709 0 466.774 0 466.774-38.168 469.71-38.168C475.827-38.168 480.109-38.535 482.555-39.269 485.002-40.003 486.653-41.5933 487.51-44.04 488.366-46.4867 488.794-50.5237 488.794-56.151L488.794-127.716C488.794-133.588 487.877-137.319 486.042-138.91 484.207-140.5 480.598-141.295 475.215-141.295L466.774-141.295 466.774-179.83 557.79-187.17ZM695.209-145.699C691.05-145.699 687.685-145.21 685.117-144.231 682.547-143.252 681.263-140.806 681.263-136.891 681.263-134.934 681.997-131.998 683.465-128.083L699.98-86.612 700.714-86.612 731.542-183.867 788.794-183.867 818.888-86.612 819.622-86.612 833.201-122.211C835.892-128.817 837.238-133.71 837.238-136.891 837.238-140.561 836.198-142.946 834.118-144.048 832.039-145.148 828.919-145.699 824.76-145.699L824.76-183.867 912.84-183.867 912.84-145.699C908.191-145.699 904.705-144.292 902.38-141.479 900.056-138.665 897.548-134.2 894.857-128.083L838.706 0 781.821 0 752.461-80.74 722 0 664.381 0 611.166-124.78C607.985-132.609 605.049-137.992 602.358-140.928 599.667-143.864 595.018-145.454 588.412-145.699L588.412-183.867 695.209-183.867ZM1020.54-189.005C1046.47-189.005 1066.11-183.622 1079.44-172.857 1092.77-162.092 1099.44-146.433 1099.44-125.881L1099.44-61.656C1099.44-55.2947 1100.42-50.7072 1102.38-47.8935 1104.34-45.0798 1107.52-43.673 1111.92-43.673 1114.37-43.673 1117.91-44.5293 1122.56-46.242L1122.56-6.239C1115.71-3.303 1107.27-0.611667 1097.24 1.835 1087.21 4.28167 1078.77 5.505 1071.92 5.505 1053.57 5.505 1041.82-1.95733 1036.68-16.882 1020.05-1.95733 1000.23 5.505 977.231 5.505 958.881 5.505 944.874 0.856333 935.209-8.441 925.545-17.7383 920.713-30.461 920.713-46.609 920.713-56.3957 923.037-65.326 927.686-73.4 932.335-81.474 939.308-88.08 948.605-93.218 957.902-98.356 972.827-103.372 993.379-108.265L1031.18-116.706 1031.18-121.477C1031.18-130.774 1029.47-137.686 1026.04-142.212 1022.62-146.739 1017.11-149.002 1009.53-149.002 1002.19-149.002 996.804-146.922 993.379-142.763 989.954-138.604 988.119-131.631 987.874-121.844L935.76-121.844 935.76-165.884C959.982-181.298 988.241-189.005 1020.54-189.005ZM986.773-53.215C986.773-47.343 988.608-42.4497 992.278-38.535 995.948-34.6203 1000.47-32.663 1005.86-32.663 1013.93-32.663 1020.17-35.8437 1024.57-42.205 1028.98-48.5663 1031.18-57.7413 1031.18-69.73L1031.18-86.979C1013.81-82.575 1001.94-77.5593 995.581-71.932 989.709-66.794 986.773-60.555 986.773-53.215ZM1282.99-189.005C1294.49-189.005 1305.01-186.558 1314.55-181.665 1324.1-176.772 1331.07-169.187 1335.47-158.911 1337.68-153.528 1339.27-148.146 1340.24-142.763 1341.22-137.38 1341.71-128.939 1341.71-117.44L1341.71-60.922C1341.71-53.8267 1342.14-48.811 1343-45.875 1343.85-42.939 1345.57-40.9205 1348.14-39.8195 1350.7-38.7185 1355.05-38.168 1361.16-38.168L1362.26-38.168 1362.26 0 1269.41 0 1269.41-98.356C1269.41-112.302 1268.37-122.15 1266.29-127.899 1264.21-133.649 1259.26-136.524 1251.43-136.524 1242.62-136.524 1236.57-132.915 1233.26-125.697 1229.96-118.48 1228.31-108.387 1228.31-95.42L1228.31-56.518C1228.31-50.646 1228.62-46.5478 1229.23-44.2235 1229.84-41.8992 1231-40.4312 1232.71-39.8195 1234.43-39.2078 1237.73-38.7797 1242.62-38.535L1250.7-38.168 1250.7 0 1137.66 0 1137.66-38.168C1145.25-38.4127 1150.38-38.8408 1153.07-39.4525 1155.77-40.0642 1157.48-41.6545 1158.21-44.2235 1158.95-46.7925 1159.31-51.8693 1159.31-59.454L1159.31-115.238C1159.31-123.557 1159.01-129.429 1158.4-132.854 1157.78-136.279 1156.74-138.42 1155.28-139.276 1153.81-140.133 1151.12-140.561 1147.2-140.561L1137.66-140.561 1137.66-178.362 1224.64-184.968C1225.86-180.564 1226.66-176.649 1227.03-173.224 1227.39-169.799 1227.7-165.028 1227.94-158.911L1228.68-158.911C1234.06-169.187 1241.4-176.772 1250.7-181.665 1259.99-186.558 1270.76-189.005 1282.99-189.005Z" fill="#FFFFFF" transform="matrix(1 0 0 1 1866.89 482)"/></g></g><text fill="#FFFFFF" font-family="Amasis MT Pro Black,Amasis MT Pro Black_MSFontService,sans-serif" font-weight="900" font-size="367" transform="matrix(1 0 0 1 714.086 1138)">Brother  <tspan font-size="367" x="1627.08" y="0">Shiwan</tspan></text></g></svg>