<?xml version="1.0" standalone="no"?>
<!DOCTYPE svg PUBLIC "-//W3C//DTD SVG 20010904//EN"
 "http://www.w3.org/TR/2001/REC-SVG-20010904/DTD/svg10.dtd">
<svg version="1.0" xmlns="http://www.w3.org/2000/svg"
 width="1281.000000pt" height="1281.000000pt" viewBox="0 0 1281.000000 1281.000000"
 preserveAspectRatio="xMidYMid meet">
<metadata>
Created by potrace 1.14, written by Peter Selinger 2001-2017
</metadata>
<g transform="translate(0.000000,1281.000000) scale(0.100000,-0.100000)"
fill="#000000" stroke="none">
<path d="M6177 12604 c-1 -1 -58 -4 -127 -8 -160 -8 -246 -15 -290 -22 -19 -3
-62 -7 -95 -10 -33 -3 -103 -12 -155 -20 -52 -9 -119 -18 -148 -21 -29 -3 -55
-9 -58 -14 -3 -5 -19 -9 -36 -9 -45 0 -152 -23 -159 -33 -4 -5 -11 -7 -16 -4
-10 6 -59 -4 -195 -39 -35 -9 -78 -19 -95 -21 -18 -3 -33 -8 -33 -12 0 -4 -12
-8 -26 -9 -14 -1 -31 -5 -37 -9 -7 -4 -23 -9 -37 -11 -14 -2 -26 -7 -28 -13
-2 -5 -15 -9 -30 -9 -26 0 -83 -16 -114 -31 -10 -5 -27 -9 -38 -9 -11 0 -20
-4 -20 -10 0 -5 -11 -10 -24 -10 -14 0 -28 -4 -31 -10 -3 -5 -17 -10 -31 -10
-13 0 -24 -4 -24 -10 0 -5 -16 -10 -35 -10 -19 0 -35 -3 -35 -7 0 -5 -34 -19
-75 -32 -41 -14 -75 -29 -75 -33 0 -4 -9 -8 -20 -8 -11 0 -28 -4 -38 -9 -53
-29 -192 -91 -201 -91 -6 0 -11 -4 -11 -10 0 -5 -11 -10 -25 -10 -14 0 -25 -4
-25 -10 0 -5 -7 -10 -16 -10 -9 0 -37 -11 -63 -24 -25 -13 -89 -45 -141 -72
-52 -27 -97 -51 -100 -54 -3 -3 -27 -17 -55 -30 -27 -14 -52 -27 -55 -30 -3
-3 -16 -11 -29 -18 -13 -8 -38 -22 -56 -32 -18 -10 -63 -37 -100 -59 -37 -23
-70 -41 -74 -41 -3 -1 -22 -14 -41 -30 -19 -17 -40 -30 -47 -30 -7 0 -13 -4
-13 -10 0 -5 -7 -10 -15 -10 -8 0 -15 -4 -15 -10 0 -5 -7 -10 -15 -10 -8 0
-15 -4 -15 -10 0 -5 -6 -10 -14 -10 -7 0 -26 -12 -42 -27 -16 -16 -42 -34 -57
-42 -14 -8 -36 -22 -46 -33 -11 -10 -25 -18 -31 -18 -5 0 -10 -4 -10 -10 0 -5
-6 -10 -13 -10 -7 0 -20 -8 -29 -17 -26 -28 -46 -43 -58 -43 -6 0 -8 -4 -5
-10 3 -5 1 -10 -4 -10 -10 0 -36 -19 -66 -47 -8 -7 -16 -13 -20 -13 -4 0 -12
-6 -19 -13 -8 -7 -33 -29 -56 -48 -23 -18 -47 -39 -54 -44 -6 -6 -28 -23 -48
-39 -21 -16 -35 -33 -31 -39 3 -5 2 -7 -4 -4 -5 3 -16 -3 -23 -14 -8 -10 -18
-19 -22 -19 -4 0 -31 -22 -59 -50 -28 -27 -55 -50 -61 -50 -5 0 -6 -4 -3 -10
3 -5 1 -10 -5 -10 -6 0 -56 -45 -110 -100 -55 -55 -105 -100 -111 -100 -7 0
-10 -3 -6 -6 3 -3 -16 -28 -43 -55 -27 -27 -47 -49 -45 -49 3 0 -15 -19 -38
-43 -23 -24 -62 -67 -87 -96 -25 -30 -50 -59 -55 -65 -6 -6 -30 -36 -55 -66
-25 -30 -51 -61 -58 -68 -6 -8 -9 -18 -6 -24 4 -7 2 -8 -4 -4 -7 4 -12 4 -12
-1 0 -4 -10 -20 -23 -35 -60 -74 -83 -103 -98 -127 -9 -14 -23 -32 -32 -40
-10 -7 -17 -20 -17 -27 0 -8 -4 -14 -8 -14 -5 0 -15 -12 -23 -27 -8 -16 -22
-37 -31 -47 -10 -11 -37 -52 -60 -90 -24 -39 -51 -80 -60 -90 -10 -11 -18 -24
-18 -28 0 -5 -5 -14 -10 -21 -19 -22 -56 -81 -86 -137 -16 -30 -34 -59 -39
-66 -6 -6 -19 -30 -29 -53 -11 -22 -23 -41 -28 -41 -4 0 -8 -9 -8 -20 0 -11
-5 -20 -11 -20 -5 0 -8 -4 -4 -9 3 -5 -1 -16 -9 -24 -17 -17 -96 -176 -96
-194 0 -6 -3 -13 -7 -15 -10 -4 -46 -75 -49 -95 -2 -9 -8 -19 -14 -23 -6 -4
-12 -17 -13 -28 -1 -12 -4 -22 -7 -22 -7 0 -35 -72 -32 -82 1 -5 -2 -8 -7 -8
-5 0 -15 -20 -22 -45 -7 -25 -17 -45 -21 -45 -4 0 -8 -11 -8 -25 0 -14 -5 -25
-12 -25 -6 0 -8 -3 -5 -7 4 -3 0 -17 -8 -29 -8 -13 -16 -31 -18 -41 -2 -10
-11 -35 -20 -57 -9 -21 -17 -42 -17 -47 0 -5 -4 -17 -9 -27 -5 -9 -15 -37 -22
-62 -7 -25 -16 -50 -21 -56 -4 -6 -9 -19 -11 -30 -2 -10 -7 -26 -10 -34 -4 -8
-8 -24 -10 -35 -2 -11 -7 -27 -10 -35 -16 -40 -46 -139 -49 -162 -2 -15 -7
-30 -11 -34 -4 -4 -7 -20 -7 -36 0 -15 -4 -28 -8 -28 -5 0 -9 -6 -9 -12 -1 -7
-4 -26 -7 -43 -3 -16 -9 -47 -12 -67 -3 -21 -10 -38 -16 -38 -5 0 -8 -8 -7
-17 1 -10 -3 -36 -9 -58 -6 -22 -13 -56 -16 -75 -11 -75 -20 -116 -29 -140 -3
-8 -8 -35 -11 -60 -3 -25 -8 -54 -11 -65 -3 -11 -7 -42 -9 -70 -2 -27 -5 -50
-6 -50 -5 0 -20 -124 -34 -275 -3 -25 -7 -65 -10 -90 -25 -190 -25 -971 0
-1090 3 -14 7 -54 9 -90 3 -36 7 -78 10 -95 3 -16 8 -50 11 -75 3 -25 7 -58
10 -75 3 -16 8 -50 10 -75 3 -25 10 -61 15 -80 5 -19 9 -51 9 -71 0 -20 3 -39
7 -43 4 -3 8 -17 10 -29 1 -12 8 -49 15 -82 7 -33 11 -63 10 -67 -1 -5 2 -8 6
-8 5 0 9 -13 10 -30 0 -16 5 -45 11 -62 5 -18 14 -52 20 -75 19 -75 33 -128
39 -143 3 -8 7 -26 9 -39 2 -14 8 -32 14 -42 5 -10 9 -29 9 -43 0 -14 5 -26
10 -26 6 0 9 -3 8 -7 -4 -14 26 -113 33 -113 4 0 6 -8 4 -17 -1 -10 2 -24 8
-32 6 -7 13 -20 14 -30 9 -42 46 -155 53 -161 3 -3 12 -24 20 -47 7 -24 18
-43 23 -43 6 0 8 -3 5 -6 -7 -6 22 -91 58 -171 15 -32 33 -74 41 -93 9 -19 26
-57 39 -83 13 -27 24 -55 24 -62 0 -7 4 -15 9 -17 5 -1 11 -10 13 -18 2 -8 5
-17 8 -20 3 -3 40 -73 82 -156 42 -83 92 -175 110 -205 19 -30 45 -75 58 -102
14 -26 35 -59 47 -74 13 -14 23 -30 23 -34 0 -4 6 -14 13 -21 6 -8 18 -24 24
-36 7 -12 19 -32 25 -44 13 -22 20 -32 46 -62 7 -9 11 -17 10 -18 -3 -5 36
-62 59 -86 13 -13 23 -27 23 -31 0 -5 13 -24 30 -42 16 -19 35 -45 42 -59 7
-14 22 -35 33 -47 36 -40 45 -52 57 -78 6 -14 17 -25 25 -25 7 0 13 -7 13 -15
0 -8 4 -15 8 -15 5 0 15 -11 22 -25 7 -14 20 -25 27 -25 8 0 12 -4 9 -9 -4 -5
10 -25 29 -45 19 -20 32 -36 29 -36 -5 0 10 -17 101 -113 35 -37 62 -67 60
-67 -2 0 7 -11 21 -25 14 -14 30 -25 36 -25 6 0 9 -3 5 -6 -7 -8 279 -294 294
-294 5 0 7 -4 4 -10 -3 -5 0 -10 7 -10 7 -1 27 -19 43 -40 17 -21 35 -39 41
-40 5 0 26 -15 46 -32 20 -18 55 -49 78 -68 23 -19 54 -46 69 -60 16 -14 43
-36 61 -50 18 -14 38 -30 44 -35 6 -6 27 -22 46 -35 19 -13 44 -33 55 -44 12
-12 38 -30 58 -40 20 -11 37 -23 37 -28 0 -4 4 -8 10 -8 5 0 19 -8 31 -17 11
-10 33 -28 47 -40 15 -13 33 -23 40 -23 6 0 12 -4 12 -9 0 -5 8 -11 18 -14 21
-7 73 -38 87 -53 12 -13 92 -64 100 -64 3 0 15 -9 27 -20 11 -10 50 -34 87
-52 36 -18 68 -36 69 -40 2 -4 8 -8 13 -8 6 0 19 -9 31 -20 12 -11 30 -20 40
-20 10 0 18 -3 18 -8 0 -4 15 -13 33 -21 17 -8 44 -22 59 -33 14 -10 33 -18
42 -18 9 0 16 -4 16 -10 0 -5 9 -10 20 -10 11 0 20 -4 20 -10 0 -5 9 -10 20
-10 11 0 20 -3 20 -7 0 -9 49 -33 67 -33 7 0 13 -4 13 -10 0 -5 7 -10 15 -10
8 0 30 -9 50 -20 20 -11 42 -20 51 -20 8 0 12 -5 9 -10 -3 -6 3 -10 14 -10 11
0 23 -5 26 -10 3 -6 17 -10 31 -10 13 0 24 -4 24 -10 0 -5 6 -10 14 -10 8 0
31 -9 53 -19 21 -11 65 -29 98 -42 33 -12 73 -28 90 -35 16 -7 33 -10 37 -8 4
3 8 0 8 -5 0 -6 11 -11 25 -11 14 0 25 -4 25 -10 0 -5 13 -10 29 -10 16 0 31
-5 33 -10 2 -6 14 -12 28 -12 14 -1 28 -6 31 -10 3 -4 17 -9 32 -10 15 -1 27
-6 27 -10 0 -4 10 -8 23 -8 13 0 27 -4 33 -10 5 -5 19 -11 31 -13 13 -2 26 -6
29 -10 4 -4 18 -7 31 -7 12 0 23 -4 23 -8 0 -4 14 -9 31 -10 17 -1 39 -7 49
-12 10 -5 32 -11 49 -12 17 -1 31 -6 31 -10 0 -4 15 -8 34 -8 19 0 38 -4 41
-10 3 -5 21 -10 40 -10 19 0 36 -4 39 -8 3 -5 38 -14 78 -21 40 -7 81 -17 90
-22 10 -5 38 -9 62 -9 25 0 48 -4 51 -10 3 -5 28 -10 56 -10 27 0 49 -4 49 -8
0 -5 28 -10 62 -11 35 -1 65 -6 68 -11 3 -5 33 -10 65 -11 33 -1 67 -5 75 -9
8 -4 51 -10 95 -13 44 -3 96 -8 115 -11 182 -28 1168 -25 1205 4 6 4 46 8 90
9 43 1 82 5 85 10 3 4 28 9 55 10 65 3 87 6 105 13 8 4 38 9 65 12 28 3 75 10
105 16 30 5 76 12 103 16 26 4 47 11 47 15 0 5 20 9 43 9 24 0 47 3 51 7 3 4
16 8 28 10 30 5 190 43 208 50 8 3 24 8 35 10 11 2 27 6 35 10 8 3 22 7 30 9
26 5 91 25 200 61 58 19 117 37 132 40 15 3 25 9 22 14 -3 5 6 9 21 9 14 0 33
4 43 9 26 14 123 51 133 51 5 0 31 9 57 21 54 24 88 38 117 49 11 4 49 21 85
38 104 48 158 72 172 74 7 2 15 6 18 9 10 12 122 69 135 69 7 0 15 3 17 8 2 4
19 15 38 24 44 21 133 71 140 78 3 3 19 12 35 20 17 8 32 17 35 20 3 3 19 12
35 20 17 8 49 27 72 42 23 15 44 28 47 28 9 0 121 74 124 83 2 4 10 7 18 7 8
0 14 5 14 10 0 6 6 10 13 10 7 0 24 11 39 25 15 14 32 25 38 25 5 0 10 5 10
10 0 6 7 10 15 10 8 0 15 5 15 10 0 6 7 10 15 10 8 0 15 5 15 10 0 6 7 10 15
10 8 0 15 5 15 10 0 6 5 10 10 10 6 0 23 11 38 25 15 14 31 25 37 25 5 1 32
21 59 45 28 25 54 45 58 45 5 0 19 9 31 21 12 11 46 39 76 62 30 23 72 59 92
80 21 20 40 37 43 37 7 0 24 15 155 140 47 44 90 80 98 80 7 0 13 4 13 8 0 10
140 152 151 152 4 0 11 9 14 20 3 11 11 20 17 20 6 0 9 3 6 6 -4 3 26 39 65
79 102 105 138 145 132 145 -2 0 8 12 23 27 16 16 59 66 97 113 38 47 74 88
79 92 6 4 8 8 4 8 -7 0 17 32 49 65 7 7 9 15 6 19 -4 3 -1 6 5 6 5 0 21 17 33
38 13 20 30 44 38 52 9 8 17 21 19 28 1 7 14 25 27 38 14 14 25 29 25 34 0 5
6 15 13 22 11 12 65 92 162 243 49 75 100 169 97 178 -1 4 2 7 7 7 4 0 19 22
32 50 13 27 27 50 31 50 5 0 8 9 8 19 0 11 4 21 9 23 5 2 32 50 61 108 29 58
56 107 60 110 4 3 13 26 21 53 7 26 17 47 21 47 4 0 13 18 19 40 7 22 17 40
22 40 6 0 8 3 4 6 -3 4 7 33 24 65 16 33 27 59 24 59 -2 0 4 15 15 34 10 19
20 43 22 53 2 10 5 20 8 23 11 9 50 121 50 141 0 10 4 19 9 19 5 0 11 10 14
23 3 12 14 46 25 74 11 29 18 53 14 53 -3 0 -1 5 6 12 7 7 12 22 12 34 0 12 4
24 10 26 5 2 11 15 12 31 1 15 5 27 9 27 3 0 6 6 7 13 0 6 3 22 6 34 3 13 8
32 11 43 4 19 16 61 36 120 5 14 11 36 13 50 3 14 12 50 20 82 8 31 18 67 20
80 3 12 10 40 15 61 5 20 7 37 4 37 -3 0 -1 6 5 13 6 7 13 30 16 52 2 22 9 56
14 75 5 20 7 46 6 58 -2 12 1 22 6 22 6 0 10 15 10 33 0 17 4 48 9 67 5 19 12
55 15 80 2 25 7 63 11 85 3 22 7 58 10 80 2 22 6 54 9 70 4 17 8 62 10 100 3
39 7 93 11 120 20 174 20 875 -1 990 -3 17 -7 59 -9 95 -3 36 -7 85 -11 110
-3 25 -8 61 -10 80 -8 69 -22 163 -44 290 -6 30 -12 73 -16 95 -3 21 -8 43
-10 47 -3 5 -8 25 -10 46 -2 20 -8 48 -13 62 -10 26 -19 69 -28 130 -3 19 -10
38 -17 42 -6 4 -8 8 -4 8 4 0 2 15 -3 33 -6 17 -12 44 -14 60 -2 15 -7 32 -10
37 -3 6 -8 18 -10 27 -10 54 -70 249 -77 251 -4 2 -8 17 -8 33 0 16 -5 29 -12
29 -6 0 -9 3 -5 6 5 6 -11 59 -48 154 -19 51 -28 74 -30 83 -2 4 -4 10 -5 15
-1 4 -2 10 -1 15 0 4 -3 7 -7 7 -5 0 -9 6 -9 14 0 8 -8 31 -18 52 -11 22 -20
45 -21 53 -2 8 -6 17 -11 20 -4 3 -9 13 -11 21 -4 19 -22 59 -78 180 -24 52
-44 100 -44 107 0 6 -3 13 -7 15 -10 4 -56 94 -53 104 1 4 -2 10 -8 13 -5 3
-32 51 -60 107 -27 55 -64 121 -81 146 -17 25 -31 50 -31 56 0 6 -3 12 -7 14
-5 2 -18 24 -31 51 -13 26 -28 47 -33 47 -6 0 -7 5 -4 10 3 6 2 10 -3 10 -5 0
-15 14 -22 30 -7 17 -16 30 -20 30 -4 0 -15 18 -25 40 -10 22 -21 40 -25 40
-4 0 -13 14 -20 30 -7 17 -16 30 -21 30 -5 0 -9 6 -9 13 0 8 -9 22 -20 32 -11
10 -17 22 -14 26 3 5 1 9 -5 9 -5 0 -26 25 -46 55 -21 30 -43 58 -50 63 -8 4
-13 9 -12 12 2 7 -61 99 -88 127 -50 56 -62 71 -93 117 -17 27 -32 46 -32 42
0 -4 -11 5 -25 20 -14 15 -25 30 -25 33 0 3 -23 30 -50 59 -28 30 -50 55 -50
58 0 19 -450 464 -535 529 -24 18 -41 36 -38 39 4 3 1 6 -5 6 -12 0 -28 12
-89 68 -19 17 -42 32 -50 32 -8 0 -11 5 -8 10 3 6 2 10 -2 10 -5 0 -26 16 -48
35 -22 20 -61 50 -87 67 -27 17 -48 34 -48 38 0 4 -16 15 -35 26 -19 10 -35
22 -35 26 0 5 -7 8 -15 8 -8 0 -15 5 -15 10 0 6 -6 10 -14 10 -8 0 -16 4 -18
8 -5 12 -125 92 -138 92 -6 0 -9 4 -6 8 2 4 -10 14 -27 22 -18 8 -41 22 -51
32 -11 10 -32 24 -48 30 -15 7 -28 16 -28 20 0 5 -7 8 -16 8 -9 0 -23 9 -32
20 -10 12 -35 27 -57 35 -22 8 -35 14 -30 15 6 0 -1 6 -15 13 -40 21 -75 42
-80 47 -12 12 -51 30 -65 30 -8 0 -15 5 -15 10 0 6 -4 10 -10 10 -5 0 -31 14
-57 30 -26 17 -55 30 -65 30 -10 0 -18 3 -18 8 0 8 -49 32 -67 32 -7 0 -13 3
-13 8 0 8 -49 32 -67 32 -7 0 -13 5 -13 10 0 6 -6 10 -13 10 -7 0 -48 18 -92
40 -44 21 -99 45 -122 52 -24 7 -43 16 -43 20 0 4 -7 8 -15 8 -8 0 -23 4 -33
9 -33 18 -107 48 -152 61 -25 7 -49 17 -54 22 -6 4 -19 8 -31 8 -12 0 -25 4
-31 9 -14 13 -127 51 -153 51 -12 0 -19 4 -16 10 4 6 -5 10 -20 10 -14 0 -33
4 -43 9 -16 9 -108 35 -124 36 -3 0 -10 3 -14 8 -4 4 -20 7 -36 7 -15 0 -28 5
-28 10 0 6 -15 10 -34 10 -19 0 -38 5 -41 10 -3 6 -17 10 -31 10 -14 0 -34 5
-44 10 -10 6 -37 11 -59 12 -23 1 -41 5 -41 10 0 4 -14 8 -31 8 -17 0 -38 4
-47 9 -9 5 -35 10 -57 12 -22 2 -42 7 -45 11 -3 4 -28 8 -55 9 -28 1 -54 5
-60 9 -5 5 -30 10 -55 13 -25 4 -56 8 -70 11 -93 18 -200 31 -375 46 -55 5
-123 12 -151 15 -40 5 -671 13 -677 9z"/>
</g>
</svg>
